<svg xmlns="http://www.w3.org/2000/svg" viewBox="0 0 354 214" role="img" aria-label="A hand holding a phone; in a group chat the middle message reads Cook together Tuesday, eat all week. Free." fill="none" stroke="#2f3033" stroke-width="3" stroke-linecap="round" stroke-linejoin="round"><g opacity=".26"><path d="M-8 152 H40 L33 226 H-1 Z"/><rect x="-12" y="144" width="56" height="9" rx="4.5" fill="#fbfaf7"/><path d="M6 134 c-6 -8.6 6 -15.4 0 -24" stroke-width="3"/><path d="M24 132 c-6 -8.6 6 -15.4 0 -24" stroke-width="3"/><path d="M28 144 L44 108"/></g><path d="M294 152 C326 148 350 178 360 234 H288 Z" fill="#fbfaf7"/><g transform="rotate(-5 181 120)"><path d="M48 134 H74" stroke="#2f3033" stroke-width="21"/><path d="M48 134 H74" stroke="#fbfaf7" stroke-width="15"/><path d="M45 164 H74" stroke="#2f3033" stroke-width="21"/><path d="M45 164 H74" stroke="#fbfaf7" stroke-width="15"/><path d="M48 194 H74" stroke="#2f3033" stroke-width="21"/><path d="M48 194 H74" stroke="#fbfaf7" stroke-width="15"/><rect x="62" y="10" width="238" height="280" rx="28" fill="#fbfaf7"/><path d="M164 24 H198" stroke-width="4"/><circle cx="90" cy="45" r="9" fill="#fbfaf7"/><circle cx="103" cy="45" r="9" fill="#a39cb6"/><path d="M124 41 H206"/><path d="M124 51 H176" stroke="#5f6065" stroke-width="2.4" opacity=".55"/><path d="M63.5 63 H298.5" stroke-width="1.6" opacity=".3"/><rect x="80" y="72" width="104" height="24" rx="12" fill="#fbfaf7"/><path d="M94 84 H170" stroke="#5f6065" stroke-width="2.4" opacity=".55"/><rect x="80" y="104" width="186" height="85" rx="15" fill="#a39cb6"/><text x="95" y="128.5" font-size="20" font-weight="500" fill="#2f3033" stroke="none">Cook together</text><text x="95" y="152.5" font-size="20" font-weight="500" fill="#2f3033" stroke="none">Tuesday, eat all</text><text x="95" y="176.5" font-size="20" font-weight="500" fill="#2f3033" stroke="none">week. Free.</text><g transform="translate(224 170) rotate(-38)" stroke-width="2.3"><rect x="-11" y="-4.5" width="13" height="9" rx="4.5"/><rect x="-2" y="-4.5" width="13" height="9" rx="4.5"/></g><rect x="80" y="197" width="82" height="24" rx="12" fill="#fbfaf7"/><path d="M94 209 H148" stroke="#5f6065" stroke-width="2.4" opacity=".55"/></g><path d="M366 244 C342 224 312 210 278 199" stroke="#2f3033" stroke-width="29"/><path d="M366 244 C342 224 312 210 278 199" stroke="#fbfaf7" stroke-width="23"/><path d="M275 190 q9 0 13 7" stroke-width="2.2"/></svg>